<svg id="Layer_1" data-name="Layer 1" xmlns="http://www.w3.org/2000/svg" viewBox="0 0 1025 608.01"><defs><style>.cls-1{fill:none;stroke-width:14px;}.cls-1,.cls-2{stroke:#000;}.cls-2{stroke-width:5px;}</style></defs><title>icon</title><circle class="cls-1" cx="62.06" cy="63.77" r="22.94"/><circle class="cls-1" cx="962.94" cy="63.77" r="22.94"/><circle class="cls-1" cx="962.94" cy="545.94" r="22.94"/><circle class="cls-1" cx="62.06" cy="545.94" r="22.94"/><rect class="cls-1" x="7" y="7" width="1011" height="594.01" rx="10.26" ry="10.26"/><path class="cls-2" d="M868,608.25v4h1.41c1.85,0,2.61.32,3,1.23.24.52.32,9.23.37,31.89l.07,31.16.62,1.57a8.51,8.51,0,0,0,2.25,3.15c2.06,2,4.09,2.85,7.77,3.11l2.53.18v-8.14h-1.62c-1.8,0-2.4-.31-2.82-1.4-.18-.47-.26-10.7-.26-31.06,0-21.49-.08-30.77-.29-31.74A9.48,9.48,0,0,0,876,605.7a18,18,0,0,0-6.65-1.49H868Z" transform="translate(0 -144.2)"/><path class="cls-2" d="M899.59,608.17v4.07l1.83.11c3.05.15,2.71-3.63,2.87,32.49.1,25.29.2,31.68.49,32.52,1.36,4.06,4.72,6.49,9.7,7a16,16,0,0,0,2.95.11c.34-.13.42-.73.42-3.68a30.59,30.59,0,0,0-.16-3.91c-.13-.31-.52-.42-1.67-.42-1.82,0-2.27-.15-2.68-.88-.24-.42-.34-7.93-.44-32.11l-.13-31.55-.84-1.69c-1.78-3.71-4.93-5.56-10-5.92l-2.29-.16Z" transform="translate(0 -144.2)"/><path class="cls-2" d="M841.26,606a6.71,6.71,0,0,0-3.5,3.83,9.69,9.69,0,0,0-.15,2.66,5.81,5.81,0,0,0,3,4.72,4.58,4.58,0,0,0,3.18.7,5.56,5.56,0,0,0,5.6-3.41,7.21,7.21,0,0,0-.1-5.66A6.52,6.52,0,0,0,841.26,606Z" transform="translate(0 -144.2)"/><path class="cls-2" d="M931.28,606c-2.22,1-3.36,3.1-3.21,5.92a4.43,4.43,0,0,0,.88,3,5.67,5.67,0,0,0,8.11,1.7,6.21,6.21,0,0,0-.94-10.77A7.32,7.32,0,0,0,931.28,606Zm4,1.36a4.51,4.51,0,0,1,2.16,6.44c-.67,1.2-.7,1.2-1.56-.4l-.6-1.06.57-.6a3.12,3.12,0,0,0,.19-3.19,4.44,4.44,0,0,0-3-1c-.76,0-.81-.05-.39-.23A3.75,3.75,0,0,1,935.24,607.37Z" transform="translate(0 -144.2)"/><path class="cls-2" d="M757.21,625.85a21.42,21.42,0,0,0-15.93,14.68c-1.21,3.79-1.28,4.91-1.28,25v19h8.32l.1-18.57c.11-17.84.13-18.7.65-21,1.88-8.16,7.49-12.36,15-11.27,5.48.81,9.23,4.44,10.88,10.54.54,2,.57,2.66.65,21.17l.1,19.12h8.32V666.19c0-21,0-21.72,1.85-25.42a12.54,12.54,0,0,1,13.48-7.09,10.93,10.93,0,0,1,8.06,4.51,14.77,14.77,0,0,1,2.63,5.53l.68,2.08.1,19.35.08,19.38h8.58V665.37c0-18.36,0-19.27-.55-21.72a24.25,24.25,0,0,0-3-7.91,21,21,0,0,0-10.71-9c-8.85-3.13-18.94-.55-24.23,6.23l-1.41,1.77-.7-1a23.48,23.48,0,0,0-2.57-2.82A21.37,21.37,0,0,0,757.21,625.85Z" transform="translate(0 -144.2)"/><path class="cls-2" d="M839.09,650.42c0,20.78.06,24.56.39,26,1.13,4.77,4.28,7.33,9.76,7.9a12.63,12.63,0,0,0,3,.1c.34-.13.39-.7.34-4l-.08-3.86-1.43-.08a17.2,17.2,0,0,1-2-.18c-1.39-.31-1.36,0-1.36-26.08V626.12h-8.61Z" transform="translate(0 -144.2)"/></svg>