<svg xmlns="http://www.w3.org/2000/svg"
xmlns:xlink="http://www.w3.org/1999/xlink" version="1.1" x="0px" y="0px"
viewBox="25 25 50 50" enable-background="new 0 0 100 100"
xml:space="preserve"><g><path
d="M50.903,25.737c0.382-0.382,0.382-1.001,0-1.383c-0.382-0.382-1.001-0.382-1.383,0c-12.22,12.219-3.09,23.248,0,26.338
c3.543,3.543,10.637,12.934,0,23.571c-0.382,0.382-0.382,1.001,0,1.383c0.191,0.191,0.441,0.287,0.692,0.287
c0.25,0,0.501-0.096,0.692-0.287c12.22-12.219,3.09-23.248,0-26.338C47.359,45.765,40.266,36.374,50.903,25.737z"/><path
d="M65.845,49.308c-3.543-3.543-10.637-12.934,0-23.571c0.382-0.382,0.382-1.001,0-1.383c-0.382-0.382-1.001-0.382-1.383,0
c-12.22,12.219-3.09,23.248,0,26.338c3.543,3.543,10.637,12.934,0,23.571c-0.382,0.382-0.382,1.001,0,1.383
c0.191,0.191,0.441,0.287,0.692,0.287c0.25,0,0.501-0.096,0.692-0.287C78.065,63.427,68.935,52.398,65.845,49.308z"/><path
d="M35.96,25.737c0.382-0.382,0.382-1.001,0-1.383c-0.382-0.382-1.001-0.382-1.383,0c-12.22,12.219-3.09,23.248,0,26.338
c3.543,3.543,10.637,12.934,0,23.571c-0.382,0.382-0.382,1.001,0,1.383c0.191,0.191,0.441,0.287,0.692,0.287
c0.25,0,0.501-0.096,0.692-0.287c12.22-12.219,3.09-23.248,0-26.338C32.417,45.765,25.323,36.374,35.96,25.737z"/></g></svg>
