<?xml version="1.0" standalone="no"?>
<!DOCTYPE svg PUBLIC "-//W3C//DTD SVG 20010904//EN"
 "http://www.w3.org/TR/2001/REC-SVG-20010904/DTD/svg10.dtd">
<svg version="1.0" xmlns="http://www.w3.org/2000/svg"
 width="1500.000000pt" height="610.000000pt" viewBox="0 0 1500.000000 610.000000"
 preserveAspectRatio="xMidYMid meet">
<metadata>
Created by potrace 1.15, written by Peter Selinger 2001-2017
</metadata>
<g transform="translate(0.000000,610.000000) scale(0.100000,-0.100000)"
fill="#000000" stroke="none">
<path d="M8950 4635 l0 -155 54 0 c71 0 100 -12 114 -47 9 -20 12 -354 14
-1223 l3 -1195 24 -60 c17 -43 41 -77 86 -121 79 -77 157 -109 298 -119 l97
-7 0 156 0 156 -62 0 c-69 1 -92 12 -108 54 -7 18 -10 410 -10 1191 0 824 -3
1180 -11 1217 -24 110 -93 200 -194 251 -57 30 -181 57 -255 57 l-50 0 0 -155z"/>
<path d="M10160 4638 l0 -156 70 -4 c117 -6 104 139 110 -1246 4 -970 8 -1215
19 -1247 52 -156 181 -249 372 -268 54 -5 105 -7 113 -4 13 5 16 28 16 141 0
74 -3 141 -6 150 -5 12 -20 16 -64 16 -70 0 -87 6 -103 34 -9 16 -13 304 -17
1231 l-5 1210 -32 65 c-68 142 -189 213 -385 227 l-88 6 0 -155z"/>
<path d="M7923 4723 c-53 -18 -119 -91 -134 -147 -6 -23 -9 -69 -6 -102 6 -77
46 -141 115 -181 40 -24 57 -28 122 -27 106 0 172 41 215 131 29 58 26 167 -4
217 -69 110 -187 152 -308 109z"/>
<path d="M11375 4721 c-85 -38 -129 -119 -123 -227 3 -61 8 -79 34 -116 77
-110 204 -137 311 -65 153 102 132 343 -36 413 -47 20 -138 17 -186 -5z m152
-52 c95 -36 135 -154 83 -247 -26 -46 -27 -46 -60 15 l-23 41 22 23 c24 26 28
93 7 122 -16 21 -65 37 -116 38 -29 0 -31 2 -15 9 28 12 69 12 102 -1z"/>
<path d="M4700 3960 c-293 -65 -517 -272 -611 -563 -46 -145 -49 -188 -49
-959 l0 -728 159 0 160 0 4 712 c4 684 5 717 25 805 72 313 287 474 577 432
210 -31 354 -170 417 -404 21 -78 22 -102 25 -812 l4 -733 160 0 159 0 0 703
c0 804 2 833 71 975 96 199 291 302 517 272 139 -18 234 -71 309 -173 51 -70
65 -99 101 -212 l26 -80 4 -742 3 -743 165 0 164 0 0 735 c0 704 -1 739 -21
833 -26 123 -57 208 -113 303 -94 160 -246 288 -411 347 -339 120 -726 21
-929 -239 l-54 -68 -27 39 c-15 22 -60 71 -99 108 -187 178 -468 251 -736 192z"/>
<path d="M7840 3018 c0 -797 2 -942 15 -997 43 -183 164 -281 374 -303 55 -6
107 -8 116 -4 13 5 15 27 13 153 l-3 148 -55 3 c-30 1 -65 5 -78 7 -53 12 -52
-1 -52 1000 l0 925 -165 0 -165 0 0 -932z"/>
</g>
</svg>
