<svg id="Layer_1" data-name="Layer 1" xmlns="http://www.w3.org/2000/svg" viewBox="0 0 1369 551.33"><title>icon</title><path d="M943,57.57v27.7h9.65c12.69,0,17.87,2.15,20.38,8.4,1.6,3.58,2.14,63.27,2.5,218.57L976,525.8l4.29,10.72c3,7.69,7.33,13.76,15.37,21.63,14.12,13.76,28.06,19.48,53.26,21.26l17.33,1.25V524.91h-11.08c-12.33-.18-16.44-2.15-19.3-9.65-1.25-3.22-1.78-73.28-1.78-212.85,0-147.26-.54-210.88-2-217.5a65.05,65.05,0,0,0-34.67-44.85c-10.19-5.36-32.35-10.19-45.57-10.19H943Z" transform="translate(-65.5 -29.34)"/><path d="M1159.22,57V84.91l12.51.72c20.91,1.07,18.59-24.84,19.66,222.68.72,173.35,1.43,217.13,3.4,222.85,9.29,27.88,32.35,44.5,66.48,47.9,9.65.89,18.76,1.25,20.19.71,2.33-.89,2.86-5,2.86-25.2,0-13.22-.53-25.2-1.07-26.8-.89-2.15-3.57-2.86-11.44-2.86-12.51,0-15.54-1.08-18.4-6.08-1.61-2.86-2.33-54.33-3-220l-.9-216.24L1243.76,71C1231.6,45.6,1210,32.91,1175,30.41l-15.73-1.07Z" transform="translate(-65.5 -29.34)"/><path d="M759.44,41.84C750,45.06,738.18,58.11,735.5,68.12c-1.08,4.11-1.61,12.33-1.08,18.22,1.08,13.77,8.22,25.2,20.56,32.35,7.14,4.29,10.18,5,21.8,4.83,18.94,0,30.74-7.33,38.42-23.41,5.18-10.37,4.65-29.85-.71-38.79C802.16,41.67,781.07,34.16,759.44,41.84Z" transform="translate(-65.5 -29.34)"/><path d="M1376.36,42.2c-15.19,6.79-23,21.27-22,40.57.54,10.9,1.43,14.12,6.08,20.73,13.76,19.66,36.45,24.48,55.58,11.62,27.34-18.23,23.59-61.3-6.44-73.81C1401.2,37.73,1384.94,38.27,1376.36,42.2Zm27.17,9.3c17,6.43,24.12,27.52,14.83,44.14-4.65,8.22-4.83,8.22-10.72-2.68l-4.11-7.33,3.93-4.11c4.29-4.65,5-16.62,1.25-21.8-2.86-3.76-11.62-6.62-20.73-6.79-5.19,0-5.54-.36-2.68-1.61C1390.3,49.17,1397.63,49.17,1403.53,51.5Z" transform="translate(-65.5 -29.34)"/><path d="M183.45,178.2c-52.36,11.62-92.39,48.61-109.19,100.62C66,304.73,65.5,312.42,65.5,450.2V580.31h57l.71-127.25c.72-122.24.9-128.13,4.47-143.86C140.56,253.26,179,224.49,230.81,232c37.53,5.54,63.26,30.38,74.52,72.2,3.76,13.94,3.93,18.22,4.47,145.11l.72,131h57V454.67c0-143.68.35-148.87,12.68-174.24,17.16-35.57,52-54,92.4-48.61,24.84,3.21,41.82,12.69,55.22,30.91,9.12,12.51,11.62,17.7,18,37.89l4.65,14.3.71,132.6.54,132.79h58.8V449c0-125.81-.18-132.07-3.76-148.86-4.64-22-10.18-37.18-20.19-54.15-16.8-28.6-44-51.47-73.45-62-60.59-21.44-129.75-3.75-166,42.71l-9.65,12.16-4.82-7C330,227.89,322,219.13,315,212.52,281.56,180.71,231.35,167.66,183.45,178.2Z" transform="translate(-65.5 -29.34)"/><path d="M744.61,346.55c0,142.44.36,168.35,2.68,178.18,7.69,32.7,29.31,50.22,66.84,54.15,9.83,1.07,19.12,1.43,20.73.71,2.32-.89,2.68-4.82,2.32-27.34l-.53-26.45-9.83-.54A138.12,138.12,0,0,1,812.88,524c-9.47-2.14-9.29.18-9.29-178.71V180h-59Z" transform="translate(-65.5 -29.34)"/></svg>